<svg class="fill-current inline-block w-16 h-16" xmlns="http://www.w3.org/2000/svg" xmlns:xlink="http://www.w3.org/1999/xlink" viewBox="0 0 64 64">
    <g>
        <path d="M 10.078125 28.597656 C 10.078125 26.78125 8.617188 25.316406 6.828125 25.316406 L 5.21875 25.316406 L 5.21875 31.851562 L 6.828125 31.851562 C 8.617188 31.851562 10.078125 30.386719 10.078125 28.597656 M 17.414062 41.628906 L 11.496094 41.628906 L 6.796875 35.105469 L 5.21875 35.105469 L 5.21875 41.613281 L 0 41.613281 L 0 22.066406 L 7.472656 22.066406 C 11.78125 22.066406 15.296875 24.996094 15.296875 28.597656 C 15.296875 30.796875 13.949219 32.761719 11.898438 33.960938 L 17.414062 41.628906 "/>
        <path d="M 23.296875 29.773438 C 21.917969 29.773438 20.746094 31.644531 20.746094 33.960938 C 20.746094 36.28125 21.917969 38.15625 23.296875 38.15625 C 24.707031 38.15625 25.875 36.28125 25.875 33.960938 C 25.875 31.644531 24.707031 29.773438 23.296875 29.773438 M 31.324219 33.960938 C 31.324219 38.390625 27.722656 41.933594 23.296875 41.933594 C 18.871094 41.933594 15.292969 38.390625 15.292969 33.960938 C 15.292969 29.539062 18.871094 25.988281 23.296875 25.988281 C 27.722656 25.988281 31.324219 29.539062 31.324219 33.960938 "/>
        <path d="M 43.566406 26.3125 L 37.554688 32.320312 L 37.554688 26.292969 L 32.339844 26.292969 L 32.339844 41.613281 L 37.554688 41.613281 L 37.554688 35.398438 L 43.828125 41.613281 L 50.394531 41.613281 L 42.421875 33.640625 L 49.023438 27.039062 L 49.023438 36.128906 C 49.023438 39.148438 50.839844 41.933594 55.410156 41.933594 C 57.582031 41.933594 59.570312 40.703125 60.539062 39.589844 L 62.886719 41.613281 L 64 41.613281 L 64 26.316406 L 58.785156 26.316406 L 58.785156 36.21875 C 58.199219 37.246094 57.378906 37.890625 56.113281 37.890625 C 54.832031 37.890625 54.242188 37.128906 54.242188 34.695312 L 54.242188 26.316406 L 43.566406 26.316406 Z M 43.566406 26.3125 "/>
    </g>
</svg>
